<svg id="Layer_2" data-name="Layer 2" xmlns="http://www.w3.org/2000/svg" xmlns:xlink="http://www.w3.org/1999/xlink" viewBox="0 0 199.37 58.91"><defs><style>.cls-1{fill:url(#linear-gradient);}.cls-2{fill:url(#linear-gradient-2);}.cls-3{fill:url(#linear-gradient-3);}.cls-4{fill:url(#linear-gradient-4);}.cls-5{fill:url(#linear-gradient-5);}.cls-6{fill:url(#linear-gradient-6);}.cls-7{fill:url(#linear-gradient-7);}.cls-8{fill:url(#linear-gradient-8);}.cls-9{fill:url(#linear-gradient-9);}.cls-10{fill:url(#linear-gradient-10);}.cls-11{fill:url(#linear-gradient-11);}.cls-12{fill:url(#linear-gradient-12);}.cls-13{fill:url(#linear-gradient-13);}.cls-14{fill:url(#linear-gradient-14);}.cls-15{fill:url(#linear-gradient-15);}.cls-16{fill:url(#linear-gradient-16);}.cls-17{fill:url(#linear-gradient-17);}.cls-18{fill:url(#linear-gradient-18);}.cls-19{fill:url(#linear-gradient-19);}.cls-20{fill:url(#linear-gradient-20);}.cls-21{fill:url(#linear-gradient-21);}.cls-22{fill:url(#linear-gradient-22);}</style><linearGradient id="linear-gradient" x1="331.42" y1="86.95" x2="377.8" y2="86.95" gradientUnits="userSpaceOnUse"><stop offset="0" stop-color="#0575e6"/><stop offset="0.2" stop-color="#0572e2"/><stop offset="0.39" stop-color="#0569d7"/><stop offset="0.58" stop-color="#0459c4"/><stop offset="0.76" stop-color="#0343a9"/><stop offset="0.94" stop-color="#022787"/><stop offset="1" stop-color="#021b79"/></linearGradient><linearGradient id="linear-gradient-2" x1="326.02" y1="56.99" x2="353.21" y2="56.99" xlink:href="#linear-gradient"/><linearGradient id="linear-gradient-3" x1="355.54" y1="57.92" x2="384.06" y2="57.92" xlink:href="#linear-gradient"/><linearGradient id="linear-gradient-4" x1="348.12" y1="84.69" x2="349.39" y2="84.69" xlink:href="#linear-gradient"/><linearGradient id="linear-gradient-5" x1="349.12" y1="47.14" x2="357.24" y2="47.14" xlink:href="#linear-gradient"/><linearGradient id="linear-gradient-6" x1="340.09" y1="54.52" x2="365.98" y2="54.52" xlink:href="#linear-gradient"/><linearGradient id="linear-gradient-7" x1="374.1" y1="54.84" x2="375.43" y2="54.84" xlink:href="#linear-gradient"/><linearGradient id="linear-gradient-8" x1="357.82" y1="67.75" x2="377.13" y2="67.75" xlink:href="#linear-gradient"/><linearGradient id="linear-gradient-9" x1="368.18" y1="69.32" x2="377.82" y2="69.32" xlink:href="#linear-gradient"/><linearGradient id="linear-gradient-10" x1="335.61" y1="81.75" x2="344.62" y2="81.75" xlink:href="#linear-gradient"/><linearGradient id="linear-gradient-11" x1="338.79" y1="84.17" x2="355.55" y2="84.17" xlink:href="#linear-gradient"/><linearGradient id="linear-gradient-12" x1="343.08" y1="77.99" x2="377.81" y2="77.99" xlink:href="#linear-gradient"/><linearGradient id="linear-gradient-13" x1="347.8" y1="81.08" x2="376.8" y2="81.08" xlink:href="#linear-gradient"/><linearGradient id="linear-gradient-14" x1="352.84" y1="85.79" x2="370.97" y2="85.79" xlink:href="#linear-gradient"/><linearGradient id="linear-gradient-15" x1="330.94" y1="63.28" x2="332.55" y2="63.28" xlink:href="#linear-gradient"/><linearGradient id="linear-gradient-16" x1="330.57" y1="58.52" x2="369.67" y2="58.52" xlink:href="#linear-gradient"/><linearGradient id="linear-gradient-17" x1="331.15" y1="62.23" x2="372.98" y2="62.23" xlink:href="#linear-gradient"/><linearGradient id="linear-gradient-18" x1="336.18" y1="47.91" x2="352.62" y2="47.91" xlink:href="#linear-gradient"/><linearGradient id="linear-gradient-19" x1="333.38" y1="54.1" x2="341.8" y2="54.1" xlink:href="#linear-gradient"/><linearGradient id="linear-gradient-20" x1="331.74" y1="52.14" x2="361.8" y2="52.14" xlink:href="#linear-gradient"/><linearGradient id="linear-gradient-21" x1="333.01" y1="71.39" x2="370.03" y2="71.39" xlink:href="#linear-gradient"/><linearGradient id="linear-gradient-22" x1="334.02" y1="78.04" x2="334.02" y2="78.04" xlink:href="#linear-gradient"/></defs><title>logo</title><path class="cls-1" d="M377.17,80.11a1.17,1.17,0,0,0-1.59.26,26.36,26.36,0,0,1-8.37,7.74,25.62,25.62,0,0,1-12.78,3.45h-.16a25.93,25.93,0,0,1-20.78-10.44h-.11a.11.11,0,0,0-.11-.11h0l-.15-.16-.22-.11h-.74l-.26.11h-.11V81a.11.11,0,0,0-.11.11h0l-.15.1c0,.11,0,.11-.11.27v5a1.21,1.21,0,0,0,1.22,1.22,1.16,1.16,0,0,0,1.22-1.11V85.15A28.31,28.31,0,0,0,354.54,94h.1a27.8,27.8,0,0,0,13.95-3.76,26.28,26.28,0,0,0,9.06-8.54,1.16,1.16,0,0,0-.46-1.58Z" transform="translate(-326.02 -35.09)"/><path class="cls-2" d="M353.21,38.81h0v-.27c0-.1,0-.1-.16-.21s0-.16-.11-.27l-.1-.1c0-.16-.16-.16-.27-.16l-.1-.11-4.35-2.44a1.12,1.12,0,0,0-1.53.37l-.06.11a1.1,1.1,0,0,0,.53,1.59l1.33.74A30.29,30.29,0,0,0,340,41.25a29.55,29.55,0,0,0-10.08,10.23A27.92,27.92,0,0,0,329,78.25a1.21,1.21,0,0,0,1.06.64.89.89,0,0,0,.53-.11,1.11,1.11,0,0,0,.54-1.48l-.06-.11a26.07,26.07,0,0,1,.85-24.6,26.51,26.51,0,0,1,9.38-9.38,23.66,23.66,0,0,1,10.82-3.29h0a.44.44,0,0,0,.37-.16h0l.37-.21.1-.16.11-.11v-.1c0-.16,0-.16.16-.27Z" transform="translate(-326.02 -35.09)"/><path class="cls-3" d="M384,74.22a1.21,1.21,0,0,0-1.64-.47l-1.12.58a27.69,27.69,0,0,0-2.43-22.75,28.93,28.93,0,0,0-22-14,1.11,1.11,0,0,0-1.21,1,.41.41,0,0,0,0,.11,1.17,1.17,0,0,0,1.11,1.22h0a25.88,25.88,0,0,1,21.26,36.64v.84c0,.16,0,.16.1.27v.11l.16.15V78l.32.21h.9a.1.1,0,0,0,.11-.1h0l4.08-2.34A1.44,1.44,0,0,0,384,74.22Z" transform="translate(-326.02 -35.09)"/><path class="cls-4" d="M349.39,83.71a9.47,9.47,0,0,0-1.27,2,9.47,9.47,0,0,1,1.27-2" transform="translate(-326.02 -35.09)"/><path class="cls-5" d="M352.47,42.46a11.71,11.71,0,0,0,2-.1c2.07,0,3.18.85,2.7,2.49s-3.18,4.51-6.78,7c-.59.37-1.33-.64-1.22-1l.1-.1c3.08-2.12,5.41-4.46,5.94-6.05s-.9-2.44-3.23-2.23h.53" transform="translate(-326.02 -35.09)"/><path class="cls-6" d="M364.5,44.69a2.49,2.49,0,0,1,1.38,3.08c-1.27,4.45-10,11.45-19.56,15.48-1.86.74-3.61,1.38-5.2,1.85s-.95-1.11-.58-1.59.21-.26.37-.26c1.43-.48,3.07-1,4.77-1.7,9-3.92,17.23-10.44,18.45-14.63a2.31,2.31,0,0,0-1.48-3.08,11.46,11.46,0,0,0,1.85.85" transform="translate(-326.02 -35.09)"/><path class="cls-7" d="M375,54.66l.26.48a3.21,3.21,0,0,1,.22,1.27v.11a5.59,5.59,0,0,1-1-1.86,3.22,3.22,0,0,0-.37-1.49l.85,1.49" transform="translate(-326.02 -35.09)"/><path class="cls-8" d="M377.07,60a3.37,3.37,0,0,1-.16,1.86c-1.22,4.4-8.7,10.81-17.71,15.58-.95.38-1.59-.37-1.32-1a1.31,1.31,0,0,1,.47-.64c9.23-4.77,16.86-11.29,18.08-15.74a2.75,2.75,0,0,0,0-2.07,12.14,12.14,0,0,1,.64,2" transform="translate(-326.02 -35.09)"/><path class="cls-9" d="M377.81,64.26V65a2.61,2.61,0,0,1-.16,1.11c-.74,2.71-3.92,6.26-8.48,9.6-.74.48-1.11-.27-1-.74a1.86,1.86,0,0,1,.48-.75c4.67-3.44,8.11-7.15,8.86-10a7.42,7.42,0,0,0,.1-1.49l.16,1.49" transform="translate(-326.02 -35.09)"/><path class="cls-10" d="M344.57,82.23c-.11-.16-.59-.9-1.33-.74-3.82.58-6.52.21-7.63-1.12v-.1h0a4,4,0,0,1,.74.85l.74.84c1.12,1.22,3.82,1.59,7.37,1C344.73,82.81,344.57,82.44,344.57,82.23Z" transform="translate(-326.02 -35.09)"/><path class="cls-11" d="M355.54,82.71c0,.1.11.47-.53.84-6.89,2.71-12.3,3.35-14.47,1.75a14.46,14.46,0,0,1-1.75-1.37c2.12,1.75,7.9,1.22,15.16-1.7,1.22-.27,1.59.48,1.59.48" transform="translate(-326.02 -35.09)"/><path class="cls-12" d="M377.81,68.18c-.16.53-.16,1.38-.26,1.86a.56.56,0,0,1-.11.37c-1.11,4.29-9.76,11.08-19,15-6,2.6-10.92,3.34-13.41,2.33a20.6,20.6,0,0,1-2-.95c8.27,3.45,33.46-10.5,34.73-19v.37" transform="translate(-326.02 -35.09)"/><path class="cls-13" d="M376.06,75c-3.55,7.26-19.67,15.27-26.08,14.26l-2.18-.48c2.33.58,6.63-.16,11.77-2.33,8.38-3.61,16.12-9.6,17.23-13.57-.26.63-.47,1.48-.74,2.12" transform="translate(-326.02 -35.09)"/><path class="cls-14" d="M370.92,82.23c0,.11-.27.37-.64.58a32.53,32.53,0,0,1-8.37,4.93,20.84,20.84,0,0,1-6.63,1.86h-2.44c2,.11,4.88-.64,8.32-2a41.47,41.47,0,0,0,9.49-5.57.54.54,0,0,1,.27-.11v.11c.1-.11,0,0,0,.16" transform="translate(-326.02 -35.09)"/><path class="cls-15" d="M332.43,63.62a1.82,1.82,0,0,1-.9-.69,3.1,3.1,0,0,1-.38-1.48,4.61,4.61,0,0,1,.16-.64v.26l-.16.85-.21,1.22h0V64c0,.16.11.37.11.53v.21c0,.16.1.16.1.27h0a1.75,1.75,0,0,0,.91.74c.21,0,.37-.37.37-.64A2.34,2.34,0,0,0,332.43,63.62Z" transform="translate(-326.02 -35.09)"/><path class="cls-16" d="M368.8,47.4l-1-.75-.74-.47a2.41,2.41,0,0,1,1.11,2.22c-.37,7.74-30.38,26.19-37.16,19a2.41,2.41,0,0,1-.48-1.43,11.72,11.72,0,0,0,.11,2h0v.1h0v.11h0a.42.42,0,0,0,.1.37v.27h0c0,.1.16.1.16.26l-.16-.16c.16.16.16.37.27.48h0c1.75,2.38,8.22,1.85,16.59-1.7,10.71-4.56,20.42-12.19,21.79-17.23A2.52,2.52,0,0,0,368.8,47.4Z" transform="translate(-326.02 -35.09)"/><path class="cls-17" d="M372.35,50.84a12.68,12.68,0,0,0-1.43-1.59,3,3,0,0,1,.58,3c-1.32,5.14-11.56,13.15-22.64,17.82-8.69,3.71-15.48,4.29-17.33,1.85h0a1.61,1.61,0,0,1-.38-.85,19,19,0,0,0,.64,2.07c.11.37.11.48.37.64h0c1.86,2.44,8.75,1.8,17.6-1.86,11.3-4.82,21.64-12.94,23.12-18.18A3.3,3.3,0,0,0,372.35,50.84Z" transform="translate(-326.02 -35.09)"/><path class="cls-18" d="M348.12,43.21l-.69.26-.74.27A3.27,3.27,0,0,1,346,44l-.75.37-.63.27a2.58,2.58,0,0,0-.59.26l-.63.21-.48.27-.53.21-.48.37-.47.37c-.27.16-.27.27-.48.37l-.53.37-.48.38-.63.53-.59.47a5.64,5.64,0,0,0-1.59,1.49,2.72,2.72,0,0,0-.74,1.11c0,.11-.16.21-.16.32v.26a1.39,1.39,0,0,0,.16.85c.74,1,3.45.74,7-.74a20.09,20.09,0,0,0,3.18-1.59.32.32,0,0,0,.16-.42.31.31,0,0,0-.16-.16c-.11-.16-.48-.53-.74-.37s-1.7,1-2.55,1.32c-2.86,1.22-5,1.38-5.56.64a1.1,1.1,0,0,1-.11-.85,4.75,4.75,0,0,1,.74-1.27l1.86-1.7a28.59,28.59,0,0,1,5.25-3,1.7,1.7,0,0,1,.9-.58c2.81-.9,4.66-.64,4.29.74a2.88,2.88,0,0,1-.85,1.43,1.91,1.91,0,0,0,1.7.27,4,4,0,0,0,1.11-1.86C352.94,42.84,351.09,42.36,348.12,43.21Z" transform="translate(-326.02 -35.09)"/><path class="cls-19" d="M341.49,54.39c-3.44,1.12-5.88,1.12-6.62.16a1.52,1.52,0,0,1-.27-1.38,3.66,3.66,0,0,1,.53-1.11c.11-.21.37-.48.58-.85h0l-.37.37a10.12,10.12,0,0,1-.58.85,4.76,4.76,0,0,0-.53.74c-.11.27-.37.64-.48.85a3,3,0,0,1-.26.64.56.56,0,0,1-.11.37v.64h0a.76.76,0,0,0,.27.47h0c.74.85,2.43,1,3.65.75,4.35-.48,4.46-1.22,4.46-1.75S342,54.39,341.49,54.39Z" transform="translate(-326.02 -35.09)"/><path class="cls-20" d="M360.21,43.1l-.85-.26-.74-.11a1.77,1.77,0,0,1,1.22,2.44c-1,3.45-7.74,8.85-15.27,12.09-5.89,2.44-10.45,2.81-11.67,1.22a2,2,0,0,1-.26-1.7,6.49,6.49,0,0,0,.26-.74c-.26.58-.63,1.43-.84,2.07s-.16.26-.16.37-.11.37-.11.47a1.59,1.59,0,0,0,.37,1.49c1.33,1.85,6.26,1.38,12.78-1.33,8.27-3.44,15.75-9.38,16.75-13.2A2.21,2.21,0,0,0,360.21,43.1Z" transform="translate(-326.02 -35.09)"/><path class="cls-21" d="M334,78s-.16-.11-.37-.74h0v-.11a8.07,8.07,0,0,1-.64-1c1.86,2.59,8.85,2,18-1.86a67.49,67.49,0,0,0,17.71-10.92.85.85,0,0,1,1.16.33l.06.14a1,1,0,0,1-.26,1.22,68.71,68.71,0,0,1-17.71,11c-8.49,3.55-15.11,4.29-17.45,2.33-.1.11-.37-.26-.47-.37" transform="translate(-326.02 -35.09)"/><path class="cls-22" d="M334,78" transform="translate(-326.02 -35.09)"/><path d="M411.92,66.62l.65,5.79h.19l.75-5.88,6.2-17.88h4.49l6.11,18,.75,5.79h.23l.7-5.88,4.34-17.88h7.09l-9.8,32.91H429l-6.35-17.78-.84-5h-.33l-.84,5.08-6.3,17.74h-4.9l-9.76-32.91h7.57Z" transform="translate(-326.02 -35.09)"/><path d="M446.46,48.65h21.05v6.07H453.37v7.61h13V68.4h-13V81.33h-6.91Z" transform="translate(-326.02 -35.09)"/><path d="M496.17,79.93a10.82,10.82,0,0,1-4.07,1.56,26.76,26.76,0,0,1-5.18.49,19.29,19.29,0,0,1-6-.93,13.65,13.65,0,0,1-5.09-3,14.58,14.58,0,0,1-3.53-5.28A20.71,20.71,0,0,1,471,65a19.25,19.25,0,0,1,1.49-8,14.89,14.89,0,0,1,3.83-5.22,14.46,14.46,0,0,1,5.18-2.87,18.8,18.8,0,0,1,5.6-.89,29.42,29.42,0,0,1,5.11.37,20,20,0,0,1,3.43.89l-1.35,5.79a11,11,0,0,0-2.73-.75,28.55,28.55,0,0,0-3.95-.23,10.24,10.24,0,0,0-3.8.67,7.77,7.77,0,0,0-2.92,2A9.5,9.5,0,0,0,479,60.18a17.13,17.13,0,0,0-.07,9.24,9.77,9.77,0,0,0,1.82,3.46,8.16,8.16,0,0,0,3.08,2.24,11,11,0,0,0,4.34.79,15,15,0,0,0,3.85-.42,13.09,13.09,0,0,0,2.78-1.07Z" transform="translate(-326.02 -35.09)"/><path d="M525.39,54.72H515V81.33h-6.91V54.72H497.76V48.65h27.63Z" transform="translate(-326.02 -35.09)"/></svg>